<mxfile host="Electron" modified="2024-01-06T07:21:00.978Z" agent="Mozilla/5.0 (Windows NT 10.0; Win64; x64) AppleWebKit/537.36 (KHTML, like Gecko) draw.io/22.1.16 Chrome/120.0.6099.109 Electron/28.1.0 Safari/537.36" etag="YcUq14EMag__BX_jgE4g" version="22.1.16" type="device">
  <diagram name="Page-1" id="-7mq7G4CWC7J_glKIHtD">
    <mxGraphModel dx="575" dy="395" grid="1" gridSize="10" guides="1" tooltips="1" connect="1" arrows="1" fold="1" page="1" pageScale="1" pageWidth="850" pageHeight="1100" math="0" shadow="0">
      <root>
        <mxCell id="0" />
        <mxCell id="1" parent="0" />
        <mxCell id="VRA50kQW089eyyHCZExZ-1" value="&lt;font face=&quot;Comic Sans MS&quot;&gt;382&lt;/font&gt;" style="text;html=1;strokeColor=none;fillColor=none;align=left;verticalAlign=middle;whiteSpace=wrap;rounded=0;" vertex="1" parent="1">
          <mxGeometry x="280" y="300" width="30" height="20" as="geometry" />
        </mxCell>
        <mxCell id="VRA50kQW089eyyHCZExZ-2" value="" style="endArrow=none;html=1;rounded=0;align=left;" edge="1" parent="1">
          <mxGeometry width="50" height="50" relative="1" as="geometry">
            <mxPoint x="280" y="300" as="sourcePoint" />
            <mxPoint x="330" y="320" as="targetPoint" />
            <Array as="points">
              <mxPoint x="280" y="320" />
            </Array>
          </mxGeometry>
        </mxCell>
        <mxCell id="VRA50kQW089eyyHCZExZ-3" value="&lt;font face=&quot;Comic Sans MS&quot;&gt;16&lt;/font&gt;" style="text;html=1;strokeColor=none;fillColor=none;align=left;verticalAlign=middle;whiteSpace=wrap;rounded=0;" vertex="1" parent="1">
          <mxGeometry x="260" y="300" width="20" height="20" as="geometry" />
        </mxCell>
        <mxCell id="VRA50kQW089eyyHCZExZ-4" value="&lt;font face=&quot;Comic Sans MS&quot;&gt;23&lt;br&gt;&lt;/font&gt;" style="text;html=1;strokeColor=none;fillColor=none;align=left;verticalAlign=middle;whiteSpace=wrap;rounded=0;" vertex="1" parent="1">
          <mxGeometry x="290" y="320" width="30" height="20" as="geometry" />
        </mxCell>
        <mxCell id="VRA50kQW089eyyHCZExZ-5" value="" style="endArrow=none;html=1;rounded=0;align=left;" edge="1" parent="1">
          <mxGeometry width="50" height="50" relative="1" as="geometry">
            <mxPoint x="290" y="320" as="sourcePoint" />
            <mxPoint x="330" y="340" as="targetPoint" />
            <Array as="points">
              <mxPoint x="290" y="340" />
            </Array>
          </mxGeometry>
        </mxCell>
        <mxCell id="VRA50kQW089eyyHCZExZ-6" value="&lt;font face=&quot;Comic Sans MS&quot;&gt;16&lt;/font&gt;" style="text;html=1;strokeColor=none;fillColor=none;align=left;verticalAlign=middle;whiteSpace=wrap;rounded=0;" vertex="1" parent="1">
          <mxGeometry x="270" y="320" width="20" height="20" as="geometry" />
        </mxCell>
        <mxCell id="VRA50kQW089eyyHCZExZ-7" value="&lt;font face=&quot;Comic Sans MS&quot;&gt;1&lt;br&gt;&lt;/font&gt;" style="text;html=1;strokeColor=none;fillColor=none;align=left;verticalAlign=middle;whiteSpace=wrap;rounded=0;" vertex="1" parent="1">
          <mxGeometry x="300" y="340" width="30" height="20" as="geometry" />
        </mxCell>
        <mxCell id="VRA50kQW089eyyHCZExZ-8" value="" style="endArrow=none;html=1;rounded=0;align=left;" edge="1" parent="1">
          <mxGeometry width="50" height="50" relative="1" as="geometry">
            <mxPoint x="300" y="340" as="sourcePoint" />
            <mxPoint x="330" y="360" as="targetPoint" />
            <Array as="points">
              <mxPoint x="300" y="360" />
            </Array>
          </mxGeometry>
        </mxCell>
        <mxCell id="VRA50kQW089eyyHCZExZ-9" value="&lt;font face=&quot;Comic Sans MS&quot;&gt;16&lt;/font&gt;" style="text;html=1;strokeColor=none;fillColor=none;align=left;verticalAlign=middle;whiteSpace=wrap;rounded=0;" vertex="1" parent="1">
          <mxGeometry x="280" y="340" width="20" height="20" as="geometry" />
        </mxCell>
        <mxCell id="VRA50kQW089eyyHCZExZ-10" value="&lt;font face=&quot;Comic Sans MS&quot;&gt;0&lt;br&gt;&lt;/font&gt;" style="text;html=1;strokeColor=none;fillColor=none;align=left;verticalAlign=middle;whiteSpace=wrap;rounded=0;" vertex="1" parent="1">
          <mxGeometry x="300" y="360" width="30" height="20" as="geometry" />
        </mxCell>
        <mxCell id="VRA50kQW089eyyHCZExZ-11" value="&lt;font face=&quot;Comic Sans MS&quot;&gt;... 14&lt;/font&gt;" style="text;html=1;strokeColor=none;fillColor=none;align=left;verticalAlign=middle;whiteSpace=wrap;rounded=0;" vertex="1" parent="1">
          <mxGeometry x="330" y="320" width="40" height="20" as="geometry" />
        </mxCell>
        <mxCell id="VRA50kQW089eyyHCZExZ-12" value="&lt;font face=&quot;Comic Sans MS&quot;&gt;... 7&lt;/font&gt;" style="text;html=1;strokeColor=none;fillColor=none;align=left;verticalAlign=middle;whiteSpace=wrap;rounded=0;" vertex="1" parent="1">
          <mxGeometry x="330" y="340" width="40" height="20" as="geometry" />
        </mxCell>
        <mxCell id="VRA50kQW089eyyHCZExZ-13" value="&lt;font face=&quot;Comic Sans MS&quot;&gt;... 1&lt;/font&gt;" style="text;html=1;strokeColor=none;fillColor=none;align=left;verticalAlign=middle;whiteSpace=wrap;rounded=0;" vertex="1" parent="1">
          <mxGeometry x="330" y="360" width="40" height="20" as="geometry" />
        </mxCell>
        <mxCell id="VRA50kQW089eyyHCZExZ-14" value="&lt;font face=&quot;Comic Sans MS&quot;&gt;395&lt;/font&gt;" style="text;html=1;strokeColor=none;fillColor=none;align=left;verticalAlign=middle;whiteSpace=wrap;rounded=0;" vertex="1" parent="1">
          <mxGeometry x="400" y="300" width="30" height="20" as="geometry" />
        </mxCell>
        <mxCell id="VRA50kQW089eyyHCZExZ-15" value="" style="endArrow=none;html=1;rounded=0;align=left;" edge="1" parent="1">
          <mxGeometry width="50" height="50" relative="1" as="geometry">
            <mxPoint x="400" y="300" as="sourcePoint" />
            <mxPoint x="450" y="320" as="targetPoint" />
            <Array as="points">
              <mxPoint x="400" y="320" />
            </Array>
          </mxGeometry>
        </mxCell>
        <mxCell id="VRA50kQW089eyyHCZExZ-16" value="&lt;font face=&quot;Comic Sans MS&quot;&gt;8&lt;/font&gt;" style="text;html=1;strokeColor=none;fillColor=none;align=left;verticalAlign=middle;whiteSpace=wrap;rounded=0;" vertex="1" parent="1">
          <mxGeometry x="380" y="300" width="20" height="20" as="geometry" />
        </mxCell>
        <mxCell id="VRA50kQW089eyyHCZExZ-17" value="&lt;font face=&quot;Comic Sans MS&quot;&gt;49&lt;br&gt;&lt;/font&gt;" style="text;html=1;strokeColor=none;fillColor=none;align=left;verticalAlign=middle;whiteSpace=wrap;rounded=0;" vertex="1" parent="1">
          <mxGeometry x="410" y="320" width="30" height="20" as="geometry" />
        </mxCell>
        <mxCell id="VRA50kQW089eyyHCZExZ-18" value="" style="endArrow=none;html=1;rounded=0;align=left;" edge="1" parent="1">
          <mxGeometry width="50" height="50" relative="1" as="geometry">
            <mxPoint x="410" y="320" as="sourcePoint" />
            <mxPoint x="450" y="340" as="targetPoint" />
            <Array as="points">
              <mxPoint x="410" y="340" />
            </Array>
          </mxGeometry>
        </mxCell>
        <mxCell id="VRA50kQW089eyyHCZExZ-19" value="&lt;font face=&quot;Comic Sans MS&quot;&gt;8&lt;/font&gt;" style="text;html=1;strokeColor=none;fillColor=none;align=left;verticalAlign=middle;whiteSpace=wrap;rounded=0;" vertex="1" parent="1">
          <mxGeometry x="390" y="320" width="20" height="20" as="geometry" />
        </mxCell>
        <mxCell id="VRA50kQW089eyyHCZExZ-20" value="&lt;font face=&quot;Comic Sans MS&quot;&gt;6&lt;br&gt;&lt;/font&gt;" style="text;html=1;strokeColor=none;fillColor=none;align=left;verticalAlign=middle;whiteSpace=wrap;rounded=0;" vertex="1" parent="1">
          <mxGeometry x="420" y="340" width="30" height="20" as="geometry" />
        </mxCell>
        <mxCell id="VRA50kQW089eyyHCZExZ-21" value="" style="endArrow=none;html=1;rounded=0;align=left;" edge="1" parent="1">
          <mxGeometry width="50" height="50" relative="1" as="geometry">
            <mxPoint x="420" y="340" as="sourcePoint" />
            <mxPoint x="450" y="360" as="targetPoint" />
            <Array as="points">
              <mxPoint x="420" y="360" />
            </Array>
          </mxGeometry>
        </mxCell>
        <mxCell id="VRA50kQW089eyyHCZExZ-22" value="&lt;font face=&quot;Comic Sans MS&quot;&gt;8&lt;/font&gt;" style="text;html=1;strokeColor=none;fillColor=none;align=left;verticalAlign=middle;whiteSpace=wrap;rounded=0;" vertex="1" parent="1">
          <mxGeometry x="400" y="340" width="20" height="20" as="geometry" />
        </mxCell>
        <mxCell id="VRA50kQW089eyyHCZExZ-23" value="&lt;font face=&quot;Comic Sans MS&quot;&gt;0&lt;br&gt;&lt;/font&gt;" style="text;html=1;strokeColor=none;fillColor=none;align=left;verticalAlign=middle;whiteSpace=wrap;rounded=0;" vertex="1" parent="1">
          <mxGeometry x="420" y="360" width="30" height="20" as="geometry" />
        </mxCell>
        <mxCell id="VRA50kQW089eyyHCZExZ-24" value="&lt;font face=&quot;Comic Sans MS&quot;&gt;... 3&lt;/font&gt;" style="text;html=1;strokeColor=none;fillColor=none;align=left;verticalAlign=middle;whiteSpace=wrap;rounded=0;" vertex="1" parent="1">
          <mxGeometry x="450" y="320" width="30" height="20" as="geometry" />
        </mxCell>
        <mxCell id="VRA50kQW089eyyHCZExZ-25" value="&lt;font face=&quot;Comic Sans MS&quot;&gt;... 1&lt;/font&gt;" style="text;html=1;strokeColor=none;fillColor=none;align=left;verticalAlign=middle;whiteSpace=wrap;rounded=0;" vertex="1" parent="1">
          <mxGeometry x="450" y="340" width="30" height="20" as="geometry" />
        </mxCell>
        <mxCell id="VRA50kQW089eyyHCZExZ-26" value="&lt;font face=&quot;Comic Sans MS&quot;&gt;... 6&lt;/font&gt;" style="text;html=1;strokeColor=none;fillColor=none;align=left;verticalAlign=middle;whiteSpace=wrap;rounded=0;" vertex="1" parent="1">
          <mxGeometry x="450" y="360" width="30" height="20" as="geometry" />
        </mxCell>
        <mxCell id="VRA50kQW089eyyHCZExZ-27" value="" style="shape=flexArrow;endArrow=classic;html=1;rounded=0;fillColor=#f5f5f5;gradientColor=#b3b3b3;strokeColor=#666666;" edge="1" parent="1">
          <mxGeometry width="50" height="50" relative="1" as="geometry">
            <mxPoint x="299" y="380" as="sourcePoint" />
            <mxPoint x="299.23" y="430" as="targetPoint" />
          </mxGeometry>
        </mxCell>
        <mxCell id="VRA50kQW089eyyHCZExZ-28" value="&lt;font face=&quot;Comic Sans MS&quot;&gt;(17e)&lt;sub&gt;&lt;font style=&quot;font-size: 8px;&quot;&gt;16&lt;/font&gt;&lt;/sub&gt;&lt;/font&gt;" style="text;html=1;strokeColor=#b46504;fillColor=#fad7ac;align=center;verticalAlign=middle;whiteSpace=wrap;rounded=0;" vertex="1" parent="1">
          <mxGeometry x="270" y="430" width="60" height="20" as="geometry" />
        </mxCell>
        <mxCell id="VRA50kQW089eyyHCZExZ-29" value="" style="shape=flexArrow;endArrow=classic;html=1;rounded=0;fillColor=#f5f5f5;gradientColor=#b3b3b3;strokeColor=#666666;" edge="1" parent="1">
          <mxGeometry width="50" height="50" relative="1" as="geometry">
            <mxPoint x="429" y="380" as="sourcePoint" />
            <mxPoint x="429.23" y="430" as="targetPoint" />
          </mxGeometry>
        </mxCell>
        <mxCell id="VRA50kQW089eyyHCZExZ-30" value="&lt;font face=&quot;Comic Sans MS&quot;&gt;(613)&lt;sub&gt;&lt;font style=&quot;font-size: 8px;&quot;&gt;8&lt;/font&gt;&lt;/sub&gt;&lt;/font&gt;" style="text;html=1;strokeColor=#10739e;fillColor=#b1ddf0;align=center;verticalAlign=middle;whiteSpace=wrap;rounded=0;" vertex="1" parent="1">
          <mxGeometry x="400" y="430" width="60" height="20" as="geometry" />
        </mxCell>
        <mxCell id="VRA50kQW089eyyHCZExZ-31" value="&lt;font face=&quot;Comic Sans MS&quot;&gt;41&lt;/font&gt;" style="text;html=1;strokeColor=none;fillColor=none;align=left;verticalAlign=middle;whiteSpace=wrap;rounded=0;" vertex="1" parent="1">
          <mxGeometry x="510" y="240" width="30" height="20" as="geometry" />
        </mxCell>
        <mxCell id="VRA50kQW089eyyHCZExZ-32" value="" style="endArrow=none;html=1;rounded=0;align=left;" edge="1" parent="1">
          <mxGeometry width="50" height="50" relative="1" as="geometry">
            <mxPoint x="510" y="240" as="sourcePoint" />
            <mxPoint x="590" y="260" as="targetPoint" />
            <Array as="points">
              <mxPoint x="510" y="260" />
            </Array>
          </mxGeometry>
        </mxCell>
        <mxCell id="VRA50kQW089eyyHCZExZ-33" value="&lt;font face=&quot;Comic Sans MS&quot;&gt;2&lt;/font&gt;" style="text;html=1;strokeColor=none;fillColor=none;align=left;verticalAlign=middle;whiteSpace=wrap;rounded=0;" vertex="1" parent="1">
          <mxGeometry x="490" y="240" width="20" height="20" as="geometry" />
        </mxCell>
        <mxCell id="VRA50kQW089eyyHCZExZ-34" value="&lt;font face=&quot;Comic Sans MS&quot;&gt;20&lt;br&gt;&lt;/font&gt;" style="text;html=1;strokeColor=none;fillColor=none;align=left;verticalAlign=middle;whiteSpace=wrap;rounded=0;" vertex="1" parent="1">
          <mxGeometry x="520" y="260" width="30" height="20" as="geometry" />
        </mxCell>
        <mxCell id="VRA50kQW089eyyHCZExZ-35" value="" style="endArrow=none;html=1;rounded=0;align=left;" edge="1" parent="1">
          <mxGeometry width="50" height="50" relative="1" as="geometry">
            <mxPoint x="520" y="260" as="sourcePoint" />
            <mxPoint x="590" y="280" as="targetPoint" />
            <Array as="points">
              <mxPoint x="520" y="280" />
            </Array>
          </mxGeometry>
        </mxCell>
        <mxCell id="VRA50kQW089eyyHCZExZ-36" value="&lt;font face=&quot;Comic Sans MS&quot;&gt;2&lt;/font&gt;" style="text;html=1;strokeColor=none;fillColor=none;align=left;verticalAlign=middle;whiteSpace=wrap;rounded=0;" vertex="1" parent="1">
          <mxGeometry x="500" y="260" width="20" height="20" as="geometry" />
        </mxCell>
        <mxCell id="VRA50kQW089eyyHCZExZ-37" value="&lt;font face=&quot;Comic Sans MS&quot;&gt;10&lt;br&gt;&lt;/font&gt;" style="text;html=1;strokeColor=none;fillColor=none;align=left;verticalAlign=middle;whiteSpace=wrap;rounded=0;" vertex="1" parent="1">
          <mxGeometry x="530" y="280" width="30" height="20" as="geometry" />
        </mxCell>
        <mxCell id="VRA50kQW089eyyHCZExZ-38" value="" style="endArrow=none;html=1;rounded=0;align=left;" edge="1" parent="1">
          <mxGeometry width="50" height="50" relative="1" as="geometry">
            <mxPoint x="530" y="280" as="sourcePoint" />
            <mxPoint x="590" y="300" as="targetPoint" />
            <Array as="points">
              <mxPoint x="530" y="300" />
            </Array>
          </mxGeometry>
        </mxCell>
        <mxCell id="VRA50kQW089eyyHCZExZ-39" value="&lt;font face=&quot;Comic Sans MS&quot;&gt;2&lt;/font&gt;" style="text;html=1;strokeColor=none;fillColor=none;align=left;verticalAlign=middle;whiteSpace=wrap;rounded=0;" vertex="1" parent="1">
          <mxGeometry x="510" y="280" width="20" height="20" as="geometry" />
        </mxCell>
        <mxCell id="VRA50kQW089eyyHCZExZ-40" value="&lt;font face=&quot;Comic Sans MS&quot;&gt;5&lt;br&gt;&lt;/font&gt;" style="text;html=1;strokeColor=none;fillColor=none;align=left;verticalAlign=middle;whiteSpace=wrap;rounded=0;" vertex="1" parent="1">
          <mxGeometry x="540" y="300" width="30" height="20" as="geometry" />
        </mxCell>
        <mxCell id="VRA50kQW089eyyHCZExZ-41" value="&lt;font face=&quot;Comic Sans MS&quot;&gt;... 1&lt;/font&gt;" style="text;html=1;strokeColor=none;fillColor=none;align=left;verticalAlign=middle;whiteSpace=wrap;rounded=0;" vertex="1" parent="1">
          <mxGeometry x="590" y="260" width="40" height="20" as="geometry" />
        </mxCell>
        <mxCell id="VRA50kQW089eyyHCZExZ-42" value="&lt;font face=&quot;Comic Sans MS&quot;&gt;... 0&lt;/font&gt;" style="text;html=1;strokeColor=none;fillColor=none;align=left;verticalAlign=middle;whiteSpace=wrap;rounded=0;" vertex="1" parent="1">
          <mxGeometry x="590" y="280" width="40" height="20" as="geometry" />
        </mxCell>
        <mxCell id="VRA50kQW089eyyHCZExZ-43" value="&lt;font face=&quot;Comic Sans MS&quot;&gt;... 0&lt;/font&gt;" style="text;html=1;strokeColor=none;fillColor=none;align=left;verticalAlign=middle;whiteSpace=wrap;rounded=0;" vertex="1" parent="1">
          <mxGeometry x="590" y="300" width="40" height="20" as="geometry" />
        </mxCell>
        <mxCell id="VRA50kQW089eyyHCZExZ-44" value="" style="endArrow=none;html=1;rounded=0;align=left;" edge="1" parent="1">
          <mxGeometry width="50" height="50" relative="1" as="geometry">
            <mxPoint x="540" y="300" as="sourcePoint" />
            <mxPoint x="590" y="320" as="targetPoint" />
            <Array as="points">
              <mxPoint x="540" y="320" />
            </Array>
          </mxGeometry>
        </mxCell>
        <mxCell id="VRA50kQW089eyyHCZExZ-45" value="&lt;font face=&quot;Comic Sans MS&quot;&gt;2&lt;/font&gt;" style="text;html=1;strokeColor=none;fillColor=none;align=left;verticalAlign=middle;whiteSpace=wrap;rounded=0;" vertex="1" parent="1">
          <mxGeometry x="520" y="300" width="20" height="20" as="geometry" />
        </mxCell>
        <mxCell id="VRA50kQW089eyyHCZExZ-46" value="&lt;font face=&quot;Comic Sans MS&quot;&gt;2&lt;br&gt;&lt;/font&gt;" style="text;html=1;strokeColor=none;fillColor=none;align=left;verticalAlign=middle;whiteSpace=wrap;rounded=0;" vertex="1" parent="1">
          <mxGeometry x="550" y="320" width="30" height="20" as="geometry" />
        </mxCell>
        <mxCell id="VRA50kQW089eyyHCZExZ-47" value="&lt;font face=&quot;Comic Sans MS&quot;&gt;2&lt;/font&gt;" style="text;html=1;strokeColor=none;fillColor=none;align=left;verticalAlign=middle;whiteSpace=wrap;rounded=0;" vertex="1" parent="1">
          <mxGeometry x="530" y="320" width="20" height="20" as="geometry" />
        </mxCell>
        <mxCell id="VRA50kQW089eyyHCZExZ-48" value="" style="endArrow=none;html=1;rounded=0;align=left;" edge="1" parent="1">
          <mxGeometry width="50" height="50" relative="1" as="geometry">
            <mxPoint x="550" y="320" as="sourcePoint" />
            <mxPoint x="590" y="340" as="targetPoint" />
            <Array as="points">
              <mxPoint x="550" y="340" />
            </Array>
          </mxGeometry>
        </mxCell>
        <mxCell id="VRA50kQW089eyyHCZExZ-49" value="&lt;font face=&quot;Comic Sans MS&quot;&gt;1&lt;br&gt;&lt;/font&gt;" style="text;html=1;strokeColor=none;fillColor=none;align=left;verticalAlign=middle;whiteSpace=wrap;rounded=0;" vertex="1" parent="1">
          <mxGeometry x="560" y="340" width="30" height="20" as="geometry" />
        </mxCell>
        <mxCell id="VRA50kQW089eyyHCZExZ-50" value="" style="endArrow=none;html=1;rounded=0;align=left;" edge="1" parent="1">
          <mxGeometry width="50" height="50" relative="1" as="geometry">
            <mxPoint x="560" y="340" as="sourcePoint" />
            <mxPoint x="590" y="360" as="targetPoint" />
            <Array as="points">
              <mxPoint x="560" y="360" />
            </Array>
          </mxGeometry>
        </mxCell>
        <mxCell id="VRA50kQW089eyyHCZExZ-51" value="&lt;font face=&quot;Comic Sans MS&quot;&gt;2&lt;/font&gt;" style="text;html=1;strokeColor=none;fillColor=none;align=left;verticalAlign=middle;whiteSpace=wrap;rounded=0;" vertex="1" parent="1">
          <mxGeometry x="540" y="340" width="20" height="20" as="geometry" />
        </mxCell>
        <mxCell id="VRA50kQW089eyyHCZExZ-52" value="&lt;font face=&quot;Comic Sans MS&quot;&gt;0&lt;br&gt;&lt;/font&gt;" style="text;html=1;strokeColor=none;fillColor=none;align=left;verticalAlign=middle;whiteSpace=wrap;rounded=0;" vertex="1" parent="1">
          <mxGeometry x="560" y="360" width="30" height="20" as="geometry" />
        </mxCell>
        <mxCell id="VRA50kQW089eyyHCZExZ-53" value="&lt;font face=&quot;Comic Sans MS&quot;&gt;... 1&lt;/font&gt;" style="text;html=1;strokeColor=none;fillColor=none;align=left;verticalAlign=middle;whiteSpace=wrap;rounded=0;" vertex="1" parent="1">
          <mxGeometry x="590" y="320" width="40" height="20" as="geometry" />
        </mxCell>
        <mxCell id="VRA50kQW089eyyHCZExZ-54" value="&lt;font face=&quot;Comic Sans MS&quot;&gt;... 0&lt;/font&gt;" style="text;html=1;strokeColor=none;fillColor=none;align=left;verticalAlign=middle;whiteSpace=wrap;rounded=0;" vertex="1" parent="1">
          <mxGeometry x="590" y="340" width="40" height="20" as="geometry" />
        </mxCell>
        <mxCell id="VRA50kQW089eyyHCZExZ-55" value="&lt;font face=&quot;Comic Sans MS&quot;&gt;... 1&lt;/font&gt;" style="text;html=1;strokeColor=none;fillColor=none;align=left;verticalAlign=middle;whiteSpace=wrap;rounded=0;" vertex="1" parent="1">
          <mxGeometry x="590" y="360" width="40" height="20" as="geometry" />
        </mxCell>
        <mxCell id="VRA50kQW089eyyHCZExZ-71" value="" style="shape=flexArrow;endArrow=classic;html=1;rounded=0;fillColor=#f5f5f5;gradientColor=#b3b3b3;strokeColor=#666666;" edge="1" parent="1">
          <mxGeometry width="50" height="50" relative="1" as="geometry">
            <mxPoint x="559" y="380" as="sourcePoint" />
            <mxPoint x="559.23" y="430" as="targetPoint" />
          </mxGeometry>
        </mxCell>
        <mxCell id="VRA50kQW089eyyHCZExZ-72" value="&lt;font face=&quot;Comic Sans MS&quot;&gt;(101001)&lt;sub&gt;&lt;font style=&quot;font-size: 8px;&quot;&gt;2&lt;/font&gt;&lt;/sub&gt;&lt;/font&gt;" style="text;html=1;strokeColor=#ae4132;fillColor=#fad9d5;align=center;verticalAlign=middle;whiteSpace=wrap;rounded=0;" vertex="1" parent="1">
          <mxGeometry x="530" y="430" width="60" height="20" as="geometry" />
        </mxCell>
      </root>
    </mxGraphModel>
  </diagram>
</mxfile>
